<?xml version="1.0" encoding="utf-8"?>
<!-- Generator: Adobe Illustrator 19.2.1, SVG Export Plug-In . SVG Version: 6.00 Build 0)  -->
<svg version="1.1" id="Layer_1" xmlns="http://www.w3.org/2000/svg" xmlns:xlink="http://www.w3.org/1999/xlink" x="0px" y="0px"
	 viewBox="0 0 60.3 60.3" style="enable-background:new 0 0 60.3 60.3;" xml:space="preserve">
<style type="text/css">
	.st0{fill:#363332;}
	.st1{fill:#FFFFFF;}
</style>
<circle class="st0" cx="30.2" cy="30.2" r="30.2"/>
<g>
	<path class="st1" d="M22,25.3v0.5l-0.4,0.6H22c-0.1,1.1-0.4,1.8-0.8,2.3v0.6c-0.4,0.3-0.7,0.4-0.9,0.4c-1.2-0.1-1.8-0.3-2-0.4
		c-1.1,0.8-1.7,1.8-1.7,2.9c-1,2.6-1.5,4.6-1.5,5.9v0.7h-0.4V39h0.4v-0.2l1.1,0.4l3.7-2.5c0-0.3,0.1-0.4,0.2-0.4
		c0.2,0.1,0.4,0.2,0.6,0.2c0.9-1.3,1.4-1.9,1.5-1.9V35h0.2v-0.4c-0.1,0-0.2-0.1-0.2-0.2c0.9-0.4,2-1.7,3.3-3.8c1-1.2,1.9-2,2.6-2.3
		c0-0.3,0.2-0.4,0.7-0.4c1.2,0.6,1.8,1.3,1.8,2.1c0.1,0,0.2,0.1,0.2,0.2c-0.8,0-1.4,0.5-2,1.5c-0.1,0-1,1.1-2.8,3.4l-0.5-0.4h-0.2
		v0.2h0.4v0.6l-0.4-0.2v0.2c0.1,0,0.2,0.1,0.2,0.2c-0.3,0-0.7,0.4-1.3,1.3l-0.4,0.2c0-0.2-0.1-0.2-0.2-0.2c0,0.6-0.5,1.3-1.6,2.1
		c0,0.3-0.6,0.8-1.7,1.2L20,40.8l-0.4-0.2h-0.2c0,0.3-0.5,0.6-1.4,1.1c0-0.2-0.1-0.2-0.2-0.2v0.2c0.1,0,0.2,0.1,0.2,0.2l-1.8,0.2
		h-0.9c-1,0-2.2-0.7-3.5-2.1c-0.5-1.7-0.8-2.5-0.9-2.5l0.2-0.4v-1.9c0.7-3.6,1.9-6.7,3.7-9.2c0.9-0.8,2.1-1.7,3.7-2.7
		c0.2,0.1,0.4,0.2,0.6,0.2c0-0.3,0.1-0.4,0.3-0.4C20.1,23.1,21,23.9,22,25.3z"/>
	<path class="st1" d="M32,10.4c1,0.2,1.8,0.7,2.4,1.5c0,0.2,0.1,0.3,0.2,0.3l-0.2,0.7v1.4l-0.3,0.4c0.2,0,0.3,0.1,0.3,0.3v2.8
		c0,0.2,0.1,0.3,0.3,0.3c0.5,0,1.8-0.2,3.8-0.7h0.1l0.3,0.1c0-0.2,0.3-0.3,1-0.4c0,0.2,0.1,0.3,0.3,0.3c0-0.3,0.9-0.5,2.8-0.6v0.1
		c0.4-0.2,0.7-0.3,1.2-0.3c0.5,0.1,0.8,0.1,0.9,0.1c0.2-0.1,0.3-0.1,0.4-0.1c0.5,0.7,1.1,1.2,1.8,1.5c0,0.1,0,0.2-0.1,0.2l0.1,1v0.4
		h-0.9c-0.2,0-0.4,0-0.6-0.1c-0.6,0.2-1.4,0.7-2.2,1.3l-0.7-0.2c-1,0.1-1.6,0.2-1.8,0.2c0-0.1-0.1-0.2-0.2-0.2L40.8,21l-0.7-0.1
		c0,0.2-1.2,0.4-3.6,0.7v-0.1c-0.2,0-0.6,0.3-1.1,0.9c-0.6,0-0.9,0.2-0.9,0.5V25h-0.3c0.1,0.8,0.3,1.4,0.5,1.6
		c-0.2,0.3-0.3,0.5-0.3,0.7c0,0.1,0.1,0.3,0.2,0.4c-0.1,1.1-0.2,1.8-0.3,2c0.1,0.2,0.1,0.3,0.1,0.6h-0.1l0.1,0.3v2.5
		c0,0.2,0,0.4-0.1,0.6c0.1,0.2,0.1,0.3,0.1,0.6v1L34,35.9c0.2,0,0.3,0.2,0.4,0.5v0.4c0,0.1,0,0.2-0.1,0.2l0.1,0.3
		c0,1-0.1,2.3-0.3,3.8c0.1,0.2,0.1,0.4,0.1,0.6C34,41.9,33.8,42,33.6,42v0.2c0.3,0,0.5,0.1,0.5,0.3v0.1L33.7,43v0.8
		c0.5,0,0.7,0.2,0.7,0.7c0.9,0,2.2-1.4,3.8-4.3c0.2-0.6,0.5-1,0.8-1c0.2,0,0.3,0.3,0.4,1c-0.1,0.2-0.2,0.4-0.2,0.6l0.2,0.8
		c0,0.7-0.3,1.3-0.9,1.7l-0.3-0.1H38v0.1h0.3v0.2l-0.2,0.3c0.2,0,0.3,0,0.3,0.1c-0.2,0.6-0.5,1-0.9,1.2c0,0.4-0.4,0.7-1.1,1
		c0.2-0.1,0-0.1-0.3-0.1c0,0.5-0.5,0.9-1.5,1.1h-0.5c0,0.4-0.5,0.6-1.6,0.6c-0.9,0-1.6-0.5-2.1-1.5l0.3-0.4h-0.2L30.4,46l-1.1-2.7
		c0.1,0,0.2,0,0.2-0.1c-0.2,0-0.4-0.4-0.6-1.3c0.1-0.2,0.1-0.4,0.1-0.6c-0.2,0-0.3-0.1-0.3-0.3v-0.3c0-0.1,0-0.1,0.1-0.1
		c-0.2-0.4-0.3-0.7-0.3-0.9c0-0.3,0.1-0.5,0.4-0.5v-0.3l-0.4,0.3v-1c0-0.2,0.1-0.4,0.2-0.6c-0.1-0.2-0.2-0.4-0.2-0.6l0.3-0.2
		l-0.1-0.3v-0.1c0-0.1,0-0.1,0.1-0.1c-0.1-0.4-0.2-0.6-0.3-0.6c0.2-1.7,0.3-2.6,0.4-2.8c-0.1-0.3-0.2-0.7-0.3-1.3h-0.2
		c-0.3,0.9-0.5,1.3-0.7,1.3l0.1,0.3c-0.1,0.5-0.5,1.1-1.5,2.1h-0.5l-0.1,0.3l-0.3-0.2c-0.3,0.2-0.5,0.3-0.7,0.3
		c0-0.2-0.3-0.4-0.9-0.6V35l0.9-1.2h0.1l-0.1-0.3c1.2-2.2,2.1-4.9,2.8-8.3c-0.1,0-0.1,0-0.1-0.1l0.3-0.2l0.3,0.2
		c0-0.8,0-1.3,0.1-1.6L28,23.2h-0.7c-0.2,0-0.7,0.1-1.5,0.3c-0.4,0-0.7-0.3-0.7-0.9H25c0,0.4-0.1,0.6-0.3,0.6H24
		c-0.8,0-1.7-0.4-2.6-1.1l-0.3,0.1c-0.5-0.4-0.9-0.6-1.2-0.6v-0.1c0-0.1,0.3-0.5,0.9-0.9l0.4,0.3c0-0.4,0.3-0.8,1-1
		c0.1,0,0.1,0,0.1,0.1c1.3-0.3,3.1-0.6,5.5-0.9c0.2,0.1,0.4,0.2,0.6,0.2h0.2c0-0.2,0-0.3,0.1-0.3s0.2,0,0.2,0.1
		c0.9,0,1.3-0.5,1.3-1.5c0.1-1.5,0.2-2.3,0.3-2.4c0-0.1-0.1-0.1-0.2-0.1c0.2-1.7,0.4-2.9,0.7-3.5c-0.2,0-0.3-0.1-0.3-0.3V11
		c0-0.2,0.1-0.3,0.3-0.3h0.1c0.1,0,0.1,0,0.1,0.1L32,10.4z M20.3,21.3v0.2h0.3v-0.2H20.3z M20.9,21.7v0.1h0.3v-0.1H20.9z M27.1,22
		v0.3h0.3V22H27.1z M29,29.4v0.1h0.3v-0.1H29z M29,39.6L29,39.6l0.3,0.1v-0.1H29z M29.5,42.8V43h0.3v-0.1h-0.3V42.8z M29.6,41.1v0.3
		h0.1v-0.3H29.6z M30.1,42.5v0.2h0.3c0,0.2-0.2,0.3-0.5,0.3v0.1h0.2l0.7-0.1v-0.3c-0.2,0-0.4-0.1-0.6-0.2H30.1z M32.4,40.1
		c0-0.2,0.1-0.3,0.3-0.3c0,0.1,0.1,0.2,0.2,0.2v-0.3h-0.4c-0.2,0-0.3,0.1-0.3,0.3L32.4,40.1z M32.7,34.9L32.7,34.9L33,35v-0.1H32.7z
		 M32.7,37.1h0.2c0.3-0.2,0.6-0.3,0.9-0.3l-0.1-0.3C33.3,36.8,33,37,32.8,37v0.1H32.7z M32.9,37.4v0.3H33L32.9,37.4L32.9,37.4z
		 M33,41.2v0.3h0.2v-0.3H33z M33.2,26.8v0.1h0.3v-0.1H33.2z M33.2,40.3c0,0.2,0.1,0.3,0.3,0.3v-0.1C33.5,40.3,33.4,40.2,33.2,40.3
		L33.2,40.3z M33.7,26.8v0.1H34v-0.1H33.7z M33.7,36.1v0.3h0.2v-0.3H33.7z M34.1,43h0.3v0.1L34.1,43L34.1,43z M36.8,44.5l-0.1,0.6
		h0.1l0.3-0.2C37,44.7,37,44.5,37,44.5H36.8z"/>
</g>
</svg>
