<?xml version="1.0" encoding="utf-8"?>
<!-- Generator: Adobe Illustrator 19.2.1, SVG Export Plug-In . SVG Version: 6.00 Build 0)  -->
<svg version="1.1" id="Layer_1" xmlns="http://www.w3.org/2000/svg" xmlns:xlink="http://www.w3.org/1999/xlink" x="0px" y="0px"
	 viewBox="0 0 196.4 46.3" style="enable-background:new 0 0 196.4 46.3;" xml:space="preserve">
<style type="text/css">
	.st0{fill:#232322;}
</style>
<g>
	<path class="st0" d="M11.2,23.9v0.5L10.8,25h0.4c-0.1,1.1-0.4,1.8-0.8,2.3v0.6c-0.4,0.3-0.7,0.4-0.9,0.4c-1.2-0.1-1.8-0.3-2-0.4
		c-1.1,0.8-1.7,1.8-1.7,2.9c-1,2.6-1.5,4.6-1.5,5.9v0.7H4.1v0.2h0.4v-0.2l1.1,0.4l3.7-2.5c0-0.3,0.1-0.4,0.2-0.4
		C9.6,35,9.8,35,9.9,35c0.9-1.3,1.4-1.9,1.5-1.9v0.4h0.2v-0.4c-0.1,0-0.2-0.1-0.2-0.2c0.9-0.4,2-1.7,3.3-3.8c1-1.2,1.9-2,2.6-2.3
		c0-0.3,0.2-0.4,0.7-0.4c1.2,0.6,1.8,1.3,1.8,2.1c0.1,0,0.2,0.1,0.2,0.2c-0.8,0-1.4,0.5-2,1.5c-0.1,0-1,1.1-2.8,3.4l-0.5-0.4h-0.2
		v0.2h0.4V34l-0.4-0.2V34c0.1,0,0.2,0.1,0.2,0.2c-0.3,0-0.7,0.4-1.3,1.3l-0.4,0.2c0-0.2-0.1-0.2-0.2-0.2c0,0.6-0.5,1.3-1.6,2.1
		c0,0.3-0.6,0.8-1.7,1.2l-0.4,0.6l-0.4-0.2H8.6c0,0.3-0.5,0.6-1.4,1.1C7.2,40.1,7.1,40,7,40v0.2c0.1,0,0.2,0.1,0.2,0.2l-1.8,0.2H4.4
		c-1,0-2.2-0.7-3.5-2.1c-0.5-1.7-0.8-2.5-0.9-2.5l0.2-0.4v-1.9c0.7-3.6,1.9-6.7,3.7-9.2c0.9-0.8,2.1-1.7,3.7-2.7C7.8,22,8,22,8.1,22
		c0-0.3,0.1-0.4,0.3-0.4C9.3,21.7,10.3,22.5,11.2,23.9z"/>
	<path class="st0" d="M21.3,11.9l0.2,0.3l0.3-0.1c1.6,0.6,2.7,1.4,3.3,2.5v0.3c-0.2,0.2-0.4,1.3-0.7,3.1l0.1,0.3
		c-0.2,0.5-0.4,2.2-0.6,4.9c0.1,0.2,0.1,0.4,0.1,0.6h-0.3l0.3,2.6c-0.2,0-0.3,0.1-0.3,0.3v0.1h0.5c0-0.2,0.3-0.8,1-1.9
		c1-1.7,2-2.8,3-3.4c0.2,0.1,0.3,0.2,0.5,0.2c0-0.3,0.2-0.4,0.7-0.5c0,0.2,0.1,0.3,0.3,0.3l0.7-0.1c1.2,0.5,1.8,1.4,1.8,2.6
		c-0.2,1-0.4,1.5-0.6,1.5l0.3,0.7l-0.3,3.1c0.1,0.2,0.1,0.4,0.1,0.7c-0.2,1-0.3,1.5-0.3,1.6v1.8L31,33.9c0.3,0,0.5,0.7,0.6,2.2
		l-0.1,0.7v1.8L31,39.4c0.1,0,0.2,0,0.2,0.1L30.5,40c-0.2-0.2-1-0.4-2.2-0.6c-1.6-1.1-2.3-2.2-2.3-3.2c-0.1,0-0.2-0.1-0.2-0.2
		c0.2,0,0.3-0.1,0.3-0.3v-0.2c0-0.3,0-0.5-0.1-0.5l0.1-0.7v-1.5c0-0.1,0.1-0.1,0.2-0.1L26,31.8c0.3-0.7,0.4-1.2,0.4-1.6V30h-0.3
		c0,0.8-0.3,1.7-1,2.7l0.2,0.3c-1,2.7-1.7,4.4-2.1,4.9c-0.5,0.4-0.7,0.9-0.7,1.6h-0.3v-0.3c-0.6,0.2-1,0.3-1.2,0.3
		c-2.1-0.6-3.4-1.1-3.8-1.5l0.2-0.7v-0.1L17,37.3h-0.1v-0.1c0.1-0.3,0.1-0.5,0.3-0.5c0-0.1,0-0.2-0.1-0.4c0.1-1.4,0.2-2.2,0.3-2.4
		l-0.2-0.7c0-0.6,0.2-1.2,0.5-1.8l-0.2-0.6l0.2-0.3c0-0.1-0.1-0.2-0.2-0.2c0.6-3.8,1-6.1,1.2-6.8h0.3c-0.2-0.4-0.3-0.7-0.3-0.9
		l0.1-0.3c-0.1-0.2-0.1-0.4-0.1-0.4c0-0.2,0.1-0.5,0.3-0.9c0-0.1-0.1-0.1-0.2-0.1c0.5-2.7,0.8-4,1.2-4l-0.1-0.3
		c0.6-1.6,1.1-3.2,1.3-4.7H21.3z M19.2,24.2v0.3h0.3v-0.3H19.2z M20.4,21.5v0.2h0.3v-0.2H20.4z M21.3,12.4v0.3h0.2v-0.3H21.3z
		 M22.6,22v0.1h0.3V22H22.6z M26.3,28.9v0.8h0.1c0.2,0,0.3-0.1,0.3-0.3v-0.4H26.3z"/>
	<path class="st0" d="M43.5,20.8c0.2-0.1,0.3-0.2,0.5-0.2c0,0.1,0.3,0.3,0.8,0.7c0,0.2,0.2,0.4,0.7,0.5c0.1,0.2,0.1,0.3,0.1,0.5V23
		h0.2v0.3c-0.3,0-0.5,0.2-0.5,0.5c0.2,0,0.2,0,0.2,0.1l0.2-0.1h2.1c0,0.2,0.1,0.4,0.4,0.7v0.1H48v0.2h0.3L48.1,25
		c0,0.2,0.1,0.3,0.4,0.3l-0.3,0.4v0.2h0.3v0.4h-0.3v0.4c0,0.2,0.1,0.3,0.4,0.3v0.2c0,0.4,0,0.7,0.1,1.1l-0.1,0.7
		c0,0.1,0,0.2,0.1,0.4L48.7,30v0.3h-0.4v0.1c0.3,0,0.4,0.2,0.4,0.5l-0.1,1.3c0.1,0,0.1,0,0.1,0.1h-0.1l0.1,0.2c0,0.1,0,0.1-0.1,0.1
		c0,0.1,0,0.2,0.1,0.4c-0.1,1.2-0.2,1.8-0.5,1.8l0.5,0.6v0.1c0,0.1,0,0.2-0.1,0.2c0.2,0.3,0.2,0.5,0.2,0.8V37c0.2,0,0.5,0.6,1,1.8
		c0.7,0.1,0.9,0.5,0.7,1.2c0.1,0.6-0.3,0.9-1.3,1.1c0,0.2-0.3,0.3-0.9,0.4c0-0.1-0.9-0.3-2.6-0.6c-1.2-0.8-1.9-1.6-2.2-2.4
		c-0.1,0-0.1,0-0.1-0.1c0-0.2,0.1-0.3,0.4-0.3V38H43c-0.2-1.3-0.4-2-0.8-2c0,0.1-0.2,0.3-0.5,0.5c-0.2-0.1-0.3-0.1-0.4-0.1l-0.1,0.3
		c0.1,0.2,0.1,0.3,0.1,0.4l-0.8,0.7h-0.1c0-0.3-0.1-0.5-0.2-0.5S40,37.4,40,37.7h-0.3v-0.3h-0.4v0.1h0.2l-0.1,0.7h-0.1l-0.6-0.1v0.3
		h-1.4c-0.5,0-1.3-0.2-2.2-0.6h-0.4v-0.3h-0.1v0.3h-0.5c0-0.1-0.1-0.4-0.4-0.8c-0.2,0-0.4-0.5-0.5-1.4h-0.3v-0.4
		c0-0.2,0.1-0.2,0.4-0.2l-0.4-0.7v-0.4l0.3-0.4v-0.1c-0.1,0-0.3-0.1-0.4-0.3l0.1-0.6v-0.4c0.2,0,0.4-0.4,0.5-1.2
		c0.5-0.6,0.8-1.3,1-2.1c0.1,0,0.4-0.4,0.8-1.3l1-1.6c0.7-1.2,1.1-1.7,1.3-1.7c0.4,0,0.7-0.4,1-1.3l0.5-0.4l-0.1-0.3V22
		c0.9-1.2,1.5-1.8,1.8-1.8C40.7,20.4,41.7,20.6,43.5,20.8z M37.7,30.6v0.3h0.1v-0.3H37.7z M39.5,30.1v0.2c-0.3,0.3-0.5,0.8-0.6,1.6
		c-0.1,0-0.3,0.3-0.4,0.9c-0.4,0-0.6,0.4-0.6,1.2c-0.1,0-0.1,0.2-0.1,0.6c0.4-0.4,0.8-0.6,1-0.6l-0.1-0.3v-0.1H39l-0.1-0.2v-0.1
		c0.7-0.7,1-1.2,1.1-1.6c0.6-0.3,0.9-0.7,0.9-1.3c0.1,0,0.3-0.3,0.5-0.7l-0.1-0.2c0.2,0,0.4-0.3,0.7-1v-0.4
		c-0.2-0.2-0.2-0.4-0.2-0.5c-0.2,0-0.5,0.4-1,1.1c-0.2,0.2-0.5,0.6-0.8,1.2c-0.2,0.1-0.3,0.1-0.4,0.1L39.5,30.1z M41.8,26.4v0.6h0.1
		c0-0.1,0.1-0.3,0.3-0.5l-0.3-0.1H41.8z M44.3,39.1c0,0.2,0.1,0.3,0.3,0.3h0.1c0-0.2-0.1-0.3-0.3-0.3H44.3z M45.5,28.8v0.3h0.1v-0.3
		H45.5z M46,31.8v0.1h0.3v-0.1H46z M46.4,34.9v0.1h0.2v-0.1H46.4z"/>
	<path class="st0" d="M60.6,23.1c1.2,0,2.2,0.4,2.8,1.2h0.1v1.2c0,0.1,0,0.1-0.1,0.1l0.1,0.3v0.3c-0.7,0.5-1.1,1.3-1.4,2.5
		c-0.5,1.7-0.8,3.2-0.9,4.4h-0.5v0.1h0.3l-0.3,1.8H61c-0.2,0.5-0.3,1.3-0.4,2.4h0.1l-0.1,0.3V38h0.1c0.5,0,2.2-1.3,5.3-4
		c0.3-0.8,0.6-1.2,0.7-1.2c0.2,0,0.3-0.1,0.3-0.4h0.3c0.3,0.7,0.5,1.1,0.5,1.4V34c0,0.1-0.1,0.2-0.2,0.2l0.2,0.3
		c-0.5,0.3-0.7,0.9-0.9,1.8c-0.1,0-0.5,0.5-1.1,1.4c-1.2,1-1.8,1.6-1.8,1.8H64l-0.3-0.1l-0.1,0.3c0.1,0,0.1,0.1,0.1,0.2
		c0,0-0.3,0.2-0.7,0.6h-0.1l-0.3-0.2l0.1,0.3c0,0.4-0.5,0.7-1.5,0.9h-0.3l-0.4-0.3c-0.2,0-0.5,0.1-1,0.3c-0.2-0.1-0.3-0.1-0.4-0.1
		v0.1c-0.4-0.1-0.6-0.2-0.6-0.3l-0.3,0.2c-1.2-0.7-1.8-1.4-1.8-1.9l0.1-0.3c-0.2,0-0.4-0.4-0.6-1.3c0.1,0,0.2,0,0.2-0.1
		c-0.2,0-0.3-0.1-0.3-0.3c0.1,0,0.1,0,0.1-0.1h-0.1c0.2-0.5,0.3-0.8,0.3-1l-0.2-0.3c0.3-1.1,0.7-2.1,1.2-3.1l-0.1-0.3l0.4-0.6v-0.5
		c-0.1,0-0.3-0.1-0.6-0.4l0.1-0.3v-0.1h-0.3c0,0.3-0.7,0.7-2.2,1.5c-0.7,1.4-1.1,2.1-1.2,2.1l0.1,0.3c-0.4,0.6-0.7,1.5-1,2.7
		l0.1,0.3c-0.7,1.6-1.6,2.4-2.7,2.4l-0.6,0.5C49.1,40,48.9,40,48.6,40v-0.2c0-0.5,0.2-0.9,0.7-1.2l-0.2-0.3v-0.4l0.4-0.6
		c0-0.2-0.1-0.3-0.3-0.3c0.1-0.6,0.3-1.1,0.4-1.3l-0.1-0.3c0.7-1.2,1-2,1-2.2l1.3-2.1l2.1-1.5c0.6,0,2.1-1.3,4.3-3.8
		c0-0.5,0.3-1.3,0.9-2.4c0.2,0.1,0.3,0.2,0.4,0.2L60.6,23.1z M50,35.1v0.3h0.1v-0.3H50z M51.6,36c0,0.2,0.1,0.3,0.3,0.3V36H51.6z
		 M52.2,36v0.2h0.3V36H52.2z M56,37.1v0.1h0.3v-0.1H56z M56.3,34.8v0.1c0,0.2,0.1,0.3,0.3,0.3v-0.4H56.3z M56.4,35.7v0.1h0.3v-0.1
		H56.4z M56.4,37.6v0.3h0.1v-0.3H56.4z"/>
	<path class="st0" d="M73.4,24.8c0-0.2,0.1-0.3,0.3-0.3v0.1l0.3-0.1h0.3c0.6,0.5,0.9,0.9,0.9,1.3L75,26.5c0.1,0.2,0.1,0.3,0.1,0.4
		c-0.8,1.2-1.2,1.8-1.3,1.8c-0.5,0-1.1,0.8-1.8,2.5h-0.6v0.1h0.3L71.2,32c0.2,0,0.3,0.1,0.3,0.3c-0.4,0.8-0.6,1.2-0.7,1.3
		c0,0.1,0,0.1,0.1,0.1l-0.1,1.1v0.7l0.1,0.3c0.8-0.3,1.9-1.2,3.4-2.5c0.3,0,1.1-0.4,2.4-1.3c0.5-0.2,0.7-0.4,0.7-0.6l0.3,0.1
		c0.8-0.4,1.5-0.6,1.9-0.6c1.3,0,1.9,0.1,1.9,0.4l-0.2,0.7c0.1,0.2,0.2,0.4,0.2,0.5c-2.1,0.6-3.1,1.2-3.1,1.9
		c-0.7,0-2.2,1.1-4.6,3.2c-1.1,0.8-2,1.2-2.8,1.3c0-0.1-0.1-0.2-0.2-0.2v0.2c0.1,0,0.2,0,0.2,0.1h-0.2c-0.5,0-0.7-0.1-0.7-0.3
		C70,38.9,70,39,70,39.1c-2.4-0.7-3.5-1.7-3.5-2.9h0.2l-0.2-0.3v-0.3l0.2-0.3c-0.2,0-0.3-0.1-0.3-0.3v-0.3c0-0.2,0.1-0.4,0.2-0.6
		c0-0.1-0.1-0.2-0.2-0.2c0-0.9,0.2-1.3,0.6-1.3v-0.1h-0.3v-0.2c0-1.4,0.6-3.1,1.9-5.3c0-0.2,0.2-0.4,0.5-0.6l-0.1-0.3v-0.3
		c0.4,0,0.7-0.3,1-0.9c0.5,0,0.9-0.3,1.1-1C71.7,24.3,72.5,24.6,73.4,24.8z M66.9,36.9V37l0.3,0.1V37L66.9,36.9z M67.7,28.7v0.3h0.2
		v-0.3H67.7z M70,25.9v0.2h0.3v-0.2H70z M73.1,37.1v0.3h0.3v-0.3H73.1z M74.4,26.8V27l0.3,0.2V27L74.4,26.8z"/>
	<path class="st0" d="M81.8,22.9v0.4h0.1v-0.4h0.8c0.1,0,0.1,0,0.1,0.1c0.1,0,0.2,0,0.2-0.1c1.9,0.4,3.1,0.7,3.5,0.9
		c0.2-0.1,0.3-0.2,0.4-0.2c0,0.2,0.1,0.3,0.4,0.3v0.3c0,0.1,0,0.1-0.1,0.1c0,0.6,0.7,1,2.1,1.2c0,0.1,0.1,0.1,0.2,0.1
		c0.1,0,0.1,0,0.1-0.1l0.8,0.4l-0.2-0.3v-0.1h0.2l0.4,0.3c0.3-0.2,0.6-0.3,0.9-0.3c0,0.4,0.4,0.7,1.1,1l0.3-0.1
		c0,0.2,0.2,0.3,0.5,0.3v1c0.3,0.4,0.5,0.7,0.5,1v0.3c0,0.2-0.1,0.4-0.2,0.6c0.1,0.2,0.2,0.4,0.2,0.6v0.5l-0.3,0.4v0.2
		c0,0.1,0,0.2,0.1,0.2c-0.3,1.8-0.8,2.9-1.5,3.5c0,0.6-0.7,1.6-2.2,3c-0.3,0.3-0.9,0.7-1.8,1.2c0-0.1,0-0.1-0.1-0.1l0.1,0.3v0.2
		c-1.6,0.5-2.4,0.8-2.4,0.9c-2.3,0-3.7-0.6-4.3-1.8c-0.2,0-0.6-0.5-1.1-1.5l0.2-0.3v-0.1c-0.2,0-0.5-0.6-0.7-1.8
		c0.1,0,0.2,0,0.2-0.1h-0.3c0-0.8,0.2-1.2,0.6-1.2v-0.1c-0.1,0-0.3-0.1-0.4-0.2c0,0.2-0.1,0.3-0.3,0.3l-0.1-0.7c0-0.2,0-0.4,0.1-0.6
		c-0.1-0.5-0.2-0.7-0.3-0.7c0.1-0.9,0.2-1.6,0.4-2.2h-0.2c0.1-0.1,0.2-0.6,0.2-1.4l0.3,0.1h0.1L80,27.3c0.2,0,0.4-0.5,0.7-1.6h0.1
		c0,0.1,0.1,0.1,0.2,0.1v-0.3h-0.3c0-0.2,0.1-0.3,0.3-0.3c0,0.1,0,0.2,0.1,0.2v-0.3h-0.3v-0.9l0.3,0.1v-0.1c0-0.2-0.1-0.3-0.3-0.3
		c0.4-0.6,0.6-0.9,0.6-1H81.8z M79.9,30l-0.2,0.9H80c0-0.3,0.1-0.6,0.2-0.8L79.9,30z M80,28.4v0.3h0.2v-0.3H80z M85.4,33.1l-0.1,1
		c0.2,1.9,0.4,2.8,0.7,2.8c0.8-0.1,1.7-1,2.7-2.8c0-0.3-0.9-0.5-2.8-0.7c0-0.2-0.1-0.3-0.3-0.3H85.4z M87.5,30
		c0,0.2-0.1,0.4-0.2,0.6c0.2,0,0.3,0.1,0.3,0.3l-0.1,0.3c0.5,0.4,0.9,0.6,1.3,0.6h0.3c0-0.1,0.1-0.2,0.2-0.4c-0.3,0-0.5-0.2-0.6-0.7
		c-0.2-0.4-0.4-0.6-0.5-0.6H87.5z M93.3,30.3v0.1h0.3v-0.1H93.3z"/>
	<path class="st0" d="M105.1,20.8c0.2-0.1,0.3-0.2,0.5-0.2c0,0.1,0.3,0.3,0.8,0.7c0,0.2,0.2,0.4,0.7,0.5c0.1,0.2,0.1,0.3,0.1,0.5V23
		h0.2v0.3c-0.3,0-0.5,0.2-0.5,0.5c0.2,0,0.2,0,0.2,0.1l0.2-0.1h2.1c0,0.2,0.1,0.4,0.4,0.7v0.1h-0.3v0.2h0.3l-0.1,0.2
		c0,0.2,0.1,0.3,0.4,0.3l-0.3,0.4v0.2h0.3v0.4h-0.3v0.4c0,0.2,0.1,0.3,0.4,0.3v0.2c0,0.4,0,0.7,0.1,1.1l-0.1,0.7
		c0,0.1,0,0.2,0.1,0.4l-0.1,0.8v0.3h-0.4v0.1c0.3,0,0.4,0.2,0.4,0.5l-0.1,1.3c0.1,0,0.1,0,0.1,0.1h-0.1l0.1,0.2c0,0.1,0,0.1-0.1,0.1
		c0,0.1,0,0.2,0.1,0.4c-0.1,1.2-0.2,1.8-0.5,1.8l0.5,0.6v0.1c0,0.1,0,0.2-0.1,0.2c0.2,0.3,0.2,0.5,0.2,0.8V37c0.2,0,0.5,0.6,1,1.8
		c0.7,0.1,0.9,0.5,0.7,1.2c0.1,0.6-0.3,0.9-1.3,1.1c0,0.2-0.3,0.3-0.9,0.4c0-0.1-0.9-0.3-2.6-0.6c-1.2-0.8-1.9-1.6-2.2-2.4
		c-0.1,0-0.1,0-0.1-0.1c0-0.2,0.1-0.3,0.4-0.3V38h-0.8c-0.2-1.3-0.4-2-0.8-2c0,0.1-0.2,0.3-0.5,0.5c-0.2-0.1-0.3-0.1-0.4-0.1
		l-0.1,0.3c0.1,0.2,0.1,0.3,0.1,0.4l-0.8,0.7H102c0-0.3-0.1-0.5-0.2-0.5s-0.2,0.2-0.2,0.5h-0.3v-0.3h-0.4v0.1h0.2l-0.1,0.7h-0.1
		l-0.6-0.1v0.3h-1.4c-0.5,0-1.3-0.2-2.2-0.6h-0.4v-0.3h-0.1v0.3h-0.5c0-0.1-0.1-0.4-0.4-0.8c-0.2,0-0.4-0.5-0.5-1.4h-0.3v-0.4
		c0-0.2,0.1-0.2,0.4-0.2l-0.4-0.7v-0.4l0.3-0.4v-0.1c-0.1,0-0.3-0.1-0.4-0.3l0.1-0.6v-0.4c0.2,0,0.4-0.4,0.5-1.2
		c0.5-0.6,0.8-1.3,1-2.1c0.1,0,0.4-0.4,0.8-1.3l1-1.6c0.7-1.2,1.1-1.7,1.3-1.7c0.4,0,0.7-0.4,1-1.3l0.5-0.4l-0.1-0.3V22
		c0.9-1.2,1.5-1.8,1.8-1.8C102.3,20.4,103.3,20.6,105.1,20.8z M99.3,30.6v0.3h0.1v-0.3H99.3z M101.1,30.1v0.2
		c-0.3,0.3-0.5,0.8-0.6,1.6c-0.1,0-0.3,0.3-0.4,0.9c-0.4,0-0.6,0.4-0.6,1.2c-0.1,0-0.1,0.2-0.1,0.6c0.4-0.4,0.8-0.6,1-0.6l-0.1-0.3
		v-0.1h0.4l-0.1-0.2v-0.1c0.7-0.7,1-1.2,1.1-1.6c0.6-0.3,0.9-0.7,0.9-1.3c0.1,0,0.3-0.3,0.5-0.7l-0.1-0.2c0.2,0,0.4-0.3,0.7-1v-0.4
		c-0.2-0.2-0.2-0.4-0.2-0.5c-0.2,0-0.5,0.4-1,1.1c-0.2,0.2-0.5,0.6-0.8,1.2c-0.2,0.1-0.3,0.1-0.4,0.1L101.1,30.1z M103.3,26.4v0.6
		h0.1c0-0.1,0.1-0.3,0.3-0.5l-0.3-0.1H103.3z M105.9,39.1c0,0.2,0.1,0.3,0.3,0.3h0.1c0-0.2-0.1-0.3-0.3-0.3H105.9z M107.1,28.8v0.3
		h0.1v-0.3H107.1z M107.6,31.8v0.1h0.3v-0.1H107.6z M107.9,34.9v0.1h0.2v-0.1H107.9z"/>
	<path class="st0" d="M118.8,0.1l0.8-0.1c0.7,0.1,1.4,0.7,1.9,1.8c0.1,0,0.4,0.3,0.8,1c-0.1,0-0.3,0.4-0.6,1.1
		c0.1,0.2,0.2,0.3,0.2,0.6c0,0.4-0.2,0.6-0.5,0.6v0.2c0.1,0.2,0.2,0.3,0.3,0.3l-0.2,0.3c0.1,0.5,0.2,1,0.2,1.3
		c0,0.1-0.1,0.2-0.2,0.2l0.2,0.3c0,0.1-0.1,0.3-0.4,0.4c0.2,0.5,0.3,0.9,0.3,1.2c0,0.4-0.2,0.6-0.4,0.6c0.2,1.2,0.3,1.9,0.3,2.2
		c-0.2,0-0.3,0.4-0.4,1.3l0.3,0.9c-0.2,0.4-0.4,0.7-0.6,0.7c0,0.1,0,0.2,0.1,0.2c-0.1,1-0.2,1.5-0.4,1.8c0.2,0,0.3,0.1,0.3,0.3v0.5
		c0,0.2-0.1,0.3-0.4,0.3l0.3,0.4c-0.1,0.9-0.3,1.3-0.6,1.3l0.1,0.3v0.6c0,0.1,0,0.2-0.1,0.2l0.1,0.3v0.6c0,0.5-0.1,1-0.4,1.5
		c0.2,0,0.3,0.1,0.3,0.3v0.4l-0.6,0.2V24l0.6,0.6c-0.2,0-0.4,0.3-0.5,1c0.1,0.2,0.2,0.4,0.2,0.5h-0.2c0.1,0.2,0.2,0.3,0.2,0.4
		c-0.2,0.4-0.4,0.9-0.5,1.5c0.1,0,0.2,0,0.2,0.1c-0.4,0.1-0.6,0.3-0.6,0.5v0.1h0.3l0.3-0.1l0.1,0.3c-0.2,0.1-0.4,0.2-0.6,0.2v0.1
		c0.4,0,0.6,0.1,0.6,0.3l-0.3,0.2H119v-0.3c-0.2,0-0.3,0.1-0.3,0.3c0.5,0.2,0.7,0.4,0.7,0.6h-0.1c0,0.1,0,0.2,0.1,0.2
		c0,0.2,0,0.3-0.1,0.3l0.1,1.5v1.5c0.3,0.5,0.5,0.7,0.6,0.7h0.1c0.7-0.8,1.2-1.7,1.5-2.8l0.6-0.4h0.3c0.2,0,0.5,0.6,0.7,1.9
		c-0.5,2.3-1,3.5-1.6,3.5c-0.1,0.5-0.7,1.2-1.8,2.1v0.1l0.1,0.3l-0.3,0.1c-0.1-0.3-0.4-0.4-0.9-0.4c-0.1,0-0.1,0-0.1,0.1l-0.6-0.3
		c0,0.1-0.2,0.3-0.5,0.4h-0.4c-0.1,0-0.1-0.1-0.1-0.2c-0.3,0.2-0.6,0.3-0.9,0.3H116c-0.8,0-1.5-0.3-1.9-0.9v-0.4
		c-0.6-0.2-1-0.7-1.2-1.6h0.2c-0.3-0.9-0.5-1.3-0.6-1.3l0.2-0.3v-0.2c-0.2,0-0.3,0-0.3-0.1s0-0.1,0.1-0.1l-0.3-2.5h0.2l-0.2-0.3
		c0-0.2,0.1-0.5,0.3-1c-0.1-0.4-0.1-0.8-0.1-1c0.1-0.2,0.1-0.3,0.1-0.4c-0.1,0-0.1,0-0.1-0.1c0.2-0.1,0.4-0.1,0.6-0.1v-0.3h-0.2
		l-0.3,0.1l-0.1-0.3V28c0-0.3,0.1-0.7,0.4-1l-0.4-0.3c0-0.6,0.2-1,0.4-1.3h-0.3v-0.1c0-0.1,0.1-0.2,0.2-0.2l-0.2-0.3
		c0.1-0.2,0.2-0.3,0.3-0.3c-0.1-0.5-0.3-0.8-0.4-0.8c0.1-0.4,0.2-0.7,0.4-1c-0.1,0-0.3-0.1-0.4-0.4l0.4-1.8l-0.1-0.3v-0.3
		c0-0.7,0.2-1,0.7-1v-0.1h-0.1c-0.2,0.1-0.3,0.1-0.4,0.1l-0.1-0.3l0.1-0.3c-0.1-0.2-0.1-0.3-0.1-0.4c0.3,0,0.5-0.4,0.6-1.2
		c-0.2,0-0.3,0-0.3-0.1c0.3-3.1,0.6-5.1,1-5.9c0-0.1,0-0.2-0.1-0.5c0.3-1.6,0.5-2.4,0.7-2.4l-0.2-0.3c0.4-3,0.7-4.6,1-4.6
		c-0.2-1-0.3-1.6-0.3-1.6l0.7-0.6h0.4V1h0.3c0-0.4,0.5-0.7,1.5-1L118.8,0.1z M112.6,22c0,0.2,0.1,0.3,0.3,0.3l0.2-0.3H112.6z
		 M112.6,25.8v0.3h0.1v-0.3H112.6z M112.6,29.6c0.2-0.1,0.4-0.2,0.5-0.2v-0.3c-0.1,0-0.2,0-0.5-0.1V29.6z M112.7,22.4v0.1h0.3v-0.1
		H112.7z M113.8,13.2v0.5c0.2,0,0.3-0.1,0.3-0.3L113.8,13.2z M117,27v0.3h0.1V27H117z M117.2,0.6v0.3h0.2V0.6H117.2z M118.1,23v0.3
		h0.3V23H118.1z M118.5,25.4l0.3,0.1c0.2,0,0.3-0.1,0.3-0.3c0-0.2-0.1-0.3-0.3-0.3L118.5,25.4z M119.4,18.6v0.2h0.3v-0.2H119.4z
		 M119.6,21.1v0.3h0.1v-0.3H119.6z M120,15.8h0.3c0-0.2-0.1-0.3-0.3-0.3V15.8z M120.4,13.1v0.3h0.1v-0.3H120.4z"/>
	<path class="st0" d="M139.7,9c1,0.2,1.8,0.7,2.4,1.5c0,0.2,0.1,0.3,0.2,0.3l-0.2,0.7v1.4l-0.3,0.4c0.2,0,0.3,0.1,0.3,0.3v2.8
		c0,0.2,0.1,0.3,0.3,0.3c0.5,0,1.8-0.2,3.8-0.7h0.1l0.3,0.1c0-0.2,0.3-0.3,1-0.4c0,0.2,0.1,0.3,0.3,0.3c0-0.3,0.9-0.5,2.8-0.6v0.1
		c0.4-0.2,0.7-0.3,1.2-0.3c0.5,0.1,0.8,0.1,0.9,0.1c0.2-0.1,0.3-0.1,0.4-0.1c0.5,0.7,1.1,1.2,1.8,1.5c0,0.1,0,0.2-0.1,0.2l0.1,1v0.4
		h-0.9c-0.2,0-0.4,0-0.6-0.1c-0.6,0.2-1.4,0.7-2.2,1.3l-0.7-0.2c-1,0.1-1.6,0.2-1.8,0.2c0-0.1-0.1-0.2-0.2-0.2l-0.1,0.3l-0.7-0.1
		c0,0.2-1.2,0.4-3.6,0.7v-0.1c-0.2,0-0.6,0.3-1.1,0.9c-0.6,0-0.9,0.2-0.9,0.5v2.2h-0.3c0.1,0.8,0.3,1.4,0.5,1.6
		c-0.2,0.3-0.3,0.5-0.3,0.7c0,0.1,0.1,0.3,0.2,0.4c-0.1,1.1-0.2,1.8-0.3,2c0.1,0.2,0.1,0.3,0.1,0.6h-0.1l0.1,0.3v2.5
		c0,0.2,0,0.4-0.1,0.6c0.1,0.2,0.1,0.3,0.1,0.6v1l-0.4,0.6c0.2,0,0.3,0.2,0.4,0.5v0.4c0,0.1,0,0.2-0.1,0.2l0.1,0.3
		c0,1-0.1,2.3-0.3,3.8c0.1,0.2,0.1,0.4,0.1,0.6c-0.2,0.2-0.4,0.3-0.6,0.3v0.2c0.3,0,0.5,0.1,0.5,0.3v0.1l-0.3,0.5v0.8
		c0.5,0,0.7,0.2,0.7,0.7c0.9,0,2.2-1.4,3.8-4.3c0.2-0.6,0.5-1,0.8-1c0.2,0,0.3,0.3,0.4,1c-0.1,0.2-0.2,0.4-0.2,0.6l0.2,0.8
		c0,0.7-0.3,1.3-0.9,1.7l-0.3-0.1h-0.2v0.1h0.3V42l-0.2,0.3c0.2,0,0.3,0,0.3,0.1c-0.2,0.6-0.5,1-0.9,1.2c0,0.4-0.4,0.7-1.1,1
		c-0.1-0.1-0.3-0.1-0.6-0.1c0,0.5-0.5,0.9-1.5,1.1h-0.5c0,0.4-0.5,0.6-1.6,0.6c-0.9,0-1.6-0.5-2.1-1.5l0.3-0.4h-0.2l-0.3,0.2
		l-1.1-2.7c0.1,0,0.2,0,0.2-0.1c-0.2,0-0.4-0.4-0.6-1.3c0.1-0.2,0.1-0.4,0.1-0.6c-0.2,0-0.3-0.1-0.3-0.3v-0.3c0-0.1,0-0.1,0.1-0.1
		c-0.2-0.4-0.3-0.7-0.3-0.9c0-0.3,0.1-0.5,0.4-0.5v-0.3l-0.4,0.3v-1c0-0.2,0.1-0.4,0.2-0.6c-0.1-0.2-0.2-0.4-0.2-0.6l0.3-0.2
		l-0.1-0.3v-0.1c0-0.1,0-0.1,0.1-0.1c-0.1-0.4-0.2-0.6-0.3-0.6c0.2-1.7,0.3-2.6,0.4-2.8c-0.1-0.3-0.2-0.7-0.3-1.3h-0.2
		c-0.3,0.9-0.5,1.3-0.7,1.3l0.1,0.3c-0.1,0.5-0.5,1.1-1.5,2.1h-0.5l-0.1,0.3l-0.3-0.2c-0.3,0.2-0.5,0.3-0.7,0.3
		c0-0.2-0.3-0.4-0.9-0.6v-0.1l0.9-1.2h0.1l-0.1-0.3c1.2-2.2,2.1-4.9,2.8-8.3c-0.1,0-0.1,0-0.1-0.1l0.3-0.2l0.3,0.2
		c0-0.8,0-1.3,0.1-1.6l-0.3-0.2H135c-0.2,0-0.7,0.1-1.5,0.3c-0.4,0-0.7-0.3-0.7-0.9h-0.1c0,0.4-0.1,0.6-0.3,0.6h-0.7
		c-0.8,0-1.7-0.4-2.6-1.1l-0.3,0.1c-0.5-0.4-0.9-0.6-1.2-0.6v-0.1c0-0.1,0.3-0.5,0.9-0.9l0.4,0.3c0-0.4,0.3-0.8,1-1
		c0.1,0,0.1,0,0.1,0.1c1.3-0.3,3.1-0.6,5.5-0.9c0.2,0.1,0.4,0.2,0.6,0.2h0.2c0-0.2,0-0.3,0.1-0.3c0.1,0,0.2,0,0.2,0.1
		c0.9,0,1.3-0.5,1.3-1.5c0.1-1.5,0.2-2.3,0.3-2.4c0-0.1-0.1-0.1-0.2-0.1c0.2-1.7,0.4-2.9,0.7-3.5c-0.2,0-0.3-0.1-0.3-0.3V9.6
		c0-0.2,0.1-0.3,0.3-0.3h0.1c0.1,0,0.1,0,0.1,0.1L139.7,9z M128.1,19.9v0.2h0.3v-0.2H128.1z M128.7,20.3v0.1h0.3v-0.1H128.7z
		 M134.9,20.6v0.3h0.3v-0.3H134.9z M136.8,28v0.1h0.3V28H136.8z M136.8,38.2v0.1h0.3v-0.1H136.8z M137.2,41.4v0.1h0.3v-0.1H137.2z
		 M137.4,39.7V40h0.1v-0.3H137.4z M137.8,41.1v0.2h0.3c0,0.2-0.2,0.3-0.5,0.3v0.1h0.2l0.7-0.1v-0.3c-0.2,0-0.4-0.1-0.6-0.2H137.8z
		 M140.2,38.7c0-0.2,0.1-0.3,0.3-0.3c0,0.1,0.1,0.2,0.2,0.2v-0.3h-0.4c-0.2,0-0.3,0.1-0.3,0.3L140.2,38.7z M140.4,33.5v0.1h0.3v-0.1
		H140.4z M140.4,35.7h0.2c0.3-0.2,0.6-0.3,0.9-0.3l-0.1-0.3c-0.4,0.3-0.7,0.5-0.9,0.5V35.7z M140.6,36v0.3h0.1V36H140.6z
		 M140.8,39.8v0.3h0.2v-0.3H140.8z M140.9,25.4v0.1h0.3v-0.1H140.9z M140.9,38.9c0,0.2,0.1,0.3,0.3,0.3v-0.1c0-0.2-0.1-0.3-0.3-0.3
		V38.9z M141.5,25.4v0.1h0.3v-0.1H141.5z M141.5,34.6v0.3h0.2v-0.3H141.5z M141.8,41.6h0.3v0.1h-0.3V41.6z M144.6,43.1l-0.1,0.6h0.1
		l0.3-0.2c-0.1-0.2-0.1-0.4-0.1-0.4H144.6z"/>
	<path class="st0" d="M156.1,20.8c0.2-0.1,0.3-0.2,0.5-0.2c0,0.1,0.3,0.3,0.8,0.7c0,0.2,0.2,0.4,0.7,0.5c0.1,0.2,0.1,0.3,0.1,0.5V23
		h0.2v0.3c-0.3,0-0.5,0.2-0.5,0.5c0.2,0,0.2,0,0.2,0.1l0.2-0.1h2.1c0,0.2,0.1,0.4,0.4,0.7v0.1h-0.3v0.2h0.3l-0.1,0.2
		c0,0.2,0.1,0.3,0.4,0.3l-0.3,0.4v0.2h0.3v0.4h-0.3v0.4c0,0.2,0.1,0.3,0.4,0.3v0.2c0,0.4,0,0.7,0.1,1.1l-0.1,0.7
		c0,0.1,0,0.2,0.1,0.4l-0.1,0.8v0.3h-0.4v0.1c0.3,0,0.4,0.2,0.4,0.5l-0.1,1.3c0.1,0,0.1,0,0.1,0.1h-0.1l0.1,0.2c0,0.1,0,0.1-0.1,0.1
		c0,0.1,0,0.2,0.1,0.4c-0.1,1.2-0.2,1.8-0.5,1.8l0.5,0.6v0.1c0,0.1,0,0.2-0.1,0.2c0.2,0.3,0.2,0.5,0.2,0.8V37c0.2,0,0.5,0.6,1,1.8
		c0.7,0.1,0.9,0.5,0.7,1.2c0.1,0.6-0.3,0.9-1.3,1.1c0,0.2-0.3,0.3-0.9,0.4c0-0.1-0.9-0.3-2.6-0.6c-1.2-0.8-1.9-1.6-2.2-2.4
		c-0.1,0-0.1,0-0.1-0.1c0-0.2,0.1-0.3,0.4-0.3V38h-0.8c-0.2-1.3-0.4-2-0.8-2c0,0.1-0.2,0.3-0.5,0.5c-0.2-0.1-0.3-0.1-0.4-0.1
		l-0.1,0.3c0.1,0.2,0.1,0.3,0.1,0.4l-0.8,0.7H153c0-0.3-0.1-0.5-0.2-0.5s-0.2,0.2-0.2,0.5h-0.3v-0.3h-0.4v0.1h0.2l-0.1,0.7h-0.1
		l-0.6-0.1v0.3h-1.4c-0.5,0-1.3-0.2-2.2-0.6h-0.4v-0.3h-0.1v0.3h-0.5c0-0.1-0.1-0.4-0.4-0.8c-0.2,0-0.4-0.5-0.5-1.4h-0.3v-0.4
		c0-0.2,0.1-0.2,0.4-0.2l-0.4-0.7v-0.4l0.3-0.4v-0.1c-0.1,0-0.3-0.1-0.4-0.3l0.1-0.6v-0.4c0.2,0,0.4-0.4,0.5-1.2
		c0.5-0.6,0.8-1.3,1-2.1c0.1,0,0.4-0.4,0.8-1.3l1-1.6c0.7-1.2,1.1-1.7,1.3-1.7c0.4,0,0.7-0.4,1-1.3l0.5-0.4l-0.1-0.3V22
		c0.9-1.2,1.5-1.8,1.8-1.8C153.3,20.4,154.2,20.6,156.1,20.8z M150.2,30.6v0.3h0.1v-0.3H150.2z M152.1,30.1v0.2
		c-0.3,0.3-0.5,0.8-0.6,1.6c-0.1,0-0.3,0.3-0.4,0.9c-0.4,0-0.6,0.4-0.6,1.2c-0.1,0-0.1,0.2-0.1,0.6c0.4-0.4,0.8-0.6,1-0.6l-0.1-0.3
		v-0.1h0.4l-0.1-0.2v-0.1c0.7-0.7,1-1.2,1.1-1.6c0.6-0.3,0.9-0.7,0.9-1.3c0.1,0,0.3-0.3,0.5-0.7l-0.1-0.2c0.2,0,0.4-0.3,0.7-1v-0.4
		c-0.2-0.2-0.2-0.4-0.2-0.5c-0.2,0-0.5,0.4-1,1.1c-0.2,0.2-0.5,0.6-0.8,1.2c-0.2,0.1-0.3,0.1-0.4,0.1L152.1,30.1z M154.3,26.4v0.6
		h0.1c0-0.1,0.1-0.3,0.3-0.5l-0.3-0.1H154.3z M156.8,39.1c0,0.2,0.1,0.3,0.3,0.3h0.1c0-0.2-0.1-0.3-0.3-0.3H156.8z M158,28.8v0.3
		h0.1v-0.3H158z M158.5,31.8v0.1h0.3v-0.1H158.5z M158.9,34.9v0.1h0.2v-0.1H158.9z"/>
	<path class="st0" d="M169.7,0.1l0.8-0.1c0.7,0.1,1.4,0.7,1.9,1.8c0.1,0,0.4,0.3,0.8,1c-0.1,0-0.3,0.4-0.6,1.1
		c0.1,0.2,0.2,0.3,0.2,0.6c0,0.4-0.2,0.6-0.5,0.6v0.2c0.1,0.2,0.2,0.3,0.3,0.3l-0.2,0.3c0.1,0.5,0.2,1,0.2,1.3
		c0,0.1-0.1,0.2-0.2,0.2l0.2,0.3c0,0.1-0.1,0.3-0.4,0.4c0.2,0.5,0.3,0.9,0.3,1.2c0,0.4-0.2,0.6-0.4,0.6c0.2,1.2,0.3,1.9,0.3,2.2
		c-0.2,0-0.3,0.4-0.4,1.3l0.3,0.9c-0.2,0.4-0.4,0.7-0.6,0.7c0,0.1,0,0.2,0.1,0.2c-0.1,1-0.2,1.5-0.4,1.8c0.2,0,0.3,0.1,0.3,0.3v0.5
		c0,0.2-0.1,0.3-0.4,0.3l0.3,0.4c-0.1,0.9-0.3,1.3-0.6,1.3l0.1,0.3v0.6c0,0.1,0,0.2-0.1,0.2l0.1,0.3v0.6c0,0.5-0.1,1-0.4,1.5
		c0.2,0,0.3,0.1,0.3,0.3v0.4l-0.6,0.2V24l0.6,0.6c-0.2,0-0.4,0.3-0.5,1c0.1,0.2,0.2,0.4,0.2,0.5h-0.2c0.1,0.2,0.2,0.3,0.2,0.4
		c-0.2,0.4-0.4,0.9-0.5,1.5c0.1,0,0.2,0,0.2,0.1c-0.4,0.1-0.6,0.3-0.6,0.5v0.1h0.3l0.3-0.1l0.1,0.3c-0.2,0.1-0.4,0.2-0.6,0.2v0.1
		c0.4,0,0.6,0.1,0.6,0.3l-0.3,0.2h-0.1v-0.3c-0.2,0-0.3,0.1-0.3,0.3c0.5,0.2,0.7,0.4,0.7,0.6h-0.1c0,0.1,0,0.2,0.1,0.2
		c0,0.2,0,0.3-0.1,0.3l0.1,1.5v1.5c0.3,0.5,0.5,0.7,0.6,0.7h0.1c0.7-0.8,1.2-1.7,1.5-2.8l0.6-0.4h0.3c0.2,0,0.5,0.6,0.7,1.9
		c-0.5,2.3-1,3.5-1.6,3.5c-0.1,0.5-0.7,1.2-1.8,2.1v0.1l0.1,0.3l-0.3,0.1c-0.1-0.3-0.4-0.4-0.9-0.4c-0.1,0-0.1,0-0.1,0.1l-0.6-0.3
		c0,0.1-0.2,0.3-0.5,0.4h-0.4c-0.1,0-0.1-0.1-0.1-0.2c-0.3,0.2-0.6,0.3-0.9,0.3h-0.1c-0.8,0-1.5-0.3-1.9-0.9v-0.4
		c-0.6-0.2-1-0.7-1.2-1.6h0.2c-0.3-0.9-0.5-1.3-0.6-1.3l0.2-0.3v-0.2c-0.2,0-0.3,0-0.3-0.1s0-0.1,0.1-0.1l-0.3-2.5h0.2l-0.2-0.3
		c0-0.2,0.1-0.5,0.3-1c-0.1-0.4-0.1-0.8-0.1-1c0.1-0.2,0.1-0.3,0.1-0.4c-0.1,0-0.1,0-0.1-0.1c0.2-0.1,0.4-0.1,0.6-0.1v-0.3h-0.2
		l-0.3,0.1l-0.1-0.3V28c0-0.3,0.1-0.7,0.4-1l-0.4-0.3c0-0.6,0.2-1,0.4-1.3h-0.3v-0.1c0-0.1,0.1-0.2,0.2-0.2l-0.2-0.3
		c0.1-0.2,0.2-0.3,0.3-0.3c-0.1-0.5-0.3-0.8-0.4-0.8c0.1-0.4,0.2-0.7,0.4-1c-0.1,0-0.3-0.1-0.4-0.4l0.4-1.8l-0.1-0.3v-0.3
		c0-0.7,0.2-1,0.7-1v-0.1h-0.1c-0.2,0.1-0.3,0.1-0.4,0.1l-0.1-0.3l0.1-0.3c-0.1-0.2-0.1-0.3-0.1-0.4c0.3,0,0.5-0.4,0.6-1.2
		c-0.2,0-0.3,0-0.3-0.1c0.3-3.1,0.6-5.1,1-5.9c0-0.1,0-0.2-0.1-0.5c0.3-1.6,0.5-2.4,0.7-2.4l-0.2-0.3c0.4-3,0.7-4.6,1-4.6
		c-0.2-1-0.3-1.6-0.3-1.6l0.7-0.6h0.4V1h0.3c0-0.4,0.5-0.7,1.5-1L169.7,0.1z M163.6,22c0,0.2,0.1,0.3,0.3,0.3L164,22H163.6z
		 M163.6,25.8v0.3h0.1v-0.3H163.6z M163.6,29.6c0.2-0.1,0.4-0.2,0.5-0.2v-0.3c-0.1,0-0.2,0-0.5-0.1V29.6z M163.7,22.4v0.1h0.3v-0.1
		H163.7z M164.7,13.2v0.5c0.2,0,0.3-0.1,0.3-0.3L164.7,13.2z M168,27v0.3h0.1V27H168z M168.1,0.6v0.3h0.2V0.6H168.1z M169,23v0.3
		h0.3V23H169z M169.4,25.4l0.3,0.1c0.2,0,0.3-0.1,0.3-0.3c0-0.2-0.1-0.3-0.3-0.3L169.4,25.4z M170.3,18.6v0.2h0.3v-0.2H170.3z
		 M170.5,21.1v0.3h0.1v-0.3H170.5z M170.9,15.8h0.3c0-0.2-0.1-0.3-0.3-0.3V15.8z M171.4,13.1v0.3h0.1v-0.3H171.4z"/>
	<path class="st0" d="M181.6,22.7c0.4-0.1,0.7-0.2,1-0.2c0.5,0.4,0.8,0.7,1,1.1c0.6,0,1,0.3,1.3,0.9v0.3c0,0.2,0,0.4-0.1,0.6
		c0.2,0.6,0.3,1,0.3,1.2c-0.7,1.1-1.4,2.4-2.1,3.8c-1.1,1.7-2.5,2.5-3.9,2.5l-0.3,0.5v0.3c0,0.5,0,1.4,0.1,2.5
		c2.2-0.9,3.8-2.2,4.7-4h0.6v0.6c0,0.1,0.1,0.6,0.3,1.5c-0.3,0.1-0.8,1-1.6,2.7c-0.2,0.6-0.4,1-0.6,1l0.1,0.3v0.3
		c-0.4,0-0.8,0.2-1,0.7c-0.2,0-0.6,0.3-1.2,0.8c-1.5-0.3-2.2-0.6-2.2-1.1c-0.3,0-1.2-0.3-2.6-1c-0.3,0-0.8-0.3-1.3-0.9
		c-0.6-1.2-0.9-1.9-0.9-2.1h0.1l-0.1-0.3v-0.9c0-0.3,0-0.6-0.1-0.7c0-2.4,1-4.9,2.9-7.7c1.5-1.9,3-2.8,4.4-2.8
		C181.1,22.6,181.5,22.7,181.6,22.7z M179.6,30.2c0.3,0,0.8-0.6,1.6-1.8c0.2,0,0.3-0.3,0.4-1c-1,0-1.7,0.7-2.1,2.2V30.2z"/>
	<path class="st0" d="M188.5,24.2c0.1,0,0.1-0.1,0.1-0.2c2.1,0.7,3.2,1.1,3.4,1.2l0.3-0.2h0.1c0,0.2,0.1,0.3,0.3,0.3l-0.3,0.8
		c0.1,0,0.2,0.1,0.2,0.2c-0.3,0.4-1,0.9-2.2,1.5c-0.2,0.4-0.4,0.6-0.7,0.6v0.2c0,0.1,0,0.1,0.1,0.1c-0.6,1.3-1,1.9-1.2,1.9V31
		l0.3-0.2v0.3c0.1,0,1.3-0.4,3.5-1.2h0.9c0.1,0,0.1,0,0.1,0.1l0.3-0.1c1.1,0.4,1.6,1,1.6,1.6h0.2l-0.2,0.3V32c0.3,0,0.6,0.4,0.7,1.2
		h0.1l-0.1,0.7V34c0,0.1,0,0.2,0.1,0.2l-1.3,2.3c0,0.6-0.6,1.5-1.9,2.7l-0.3-0.1l0.1,0.3c-0.1,0.4-0.4,0.8-0.9,1
		c-0.5,0.3-0.7,0.6-0.7,0.9c-1.1,0.8-1.6,1.2-1.6,1.5h-0.3l-0.8-0.1v0.3c0.3,0,0.5,0.1,0.5,0.3H189l-0.3-0.2v0.3h-0.3v-0.7h-0.2
		c0,0.6,0,0.9-0.1,0.9c-0.6,0.5-1.2,0.8-1.8,0.9c0-0.2-0.1-0.3-0.3-0.3v0.3h-1.6c-0.2,0-0.3-0.1-0.3-0.3c0.1-0.2,0.2-0.4,0.2-0.6
		l-0.3-0.1l0.1-1v-0.2l-0.3-0.5c1.7-1.4,2.5-2.1,2.5-2.3l0.3,0.1h0.2v-0.1h-0.3c1.1-1.4,1.7-2.1,1.9-2.1c1.9-2.1,2.8-3.2,2.8-3.2
		c0-0.2,0.4-0.6,1.1-1.3c0,0,0.1-0.3,0.3-0.9c-0.5,0.2-0.8,0.4-0.9,0.7l-0.3-0.1h-0.2v0.1h0.3v0.1l-1.3,0.4c0-0.2-0.1-0.3-0.3-0.3
		V33c0.2,0,0.3,0.1,0.3,0.3l-0.3,0.2h-0.1v-0.3h-0.3c0,0.1,0,0.2-0.1,0.4c-0.7,0-1.9-0.5-3.6-1.6c0.1,0,0.1,0,0.1-0.1
		c-0.2,0-0.4-0.1-0.6-0.3l0.2-0.3V31h-0.3v-0.8l-0.2-0.3h0.3c0-0.1,0-0.2-0.1-0.4l0.1-0.9v-0.5c0.2,0,0.4-0.3,0.5-0.9
		c0.6-0.4,0.9-0.8,0.9-1.2l0.3,0.1c0.1,0,0.3-0.4,0.6-1.3h0.2v0.5h0.1c0-0.3,0.1-0.5,0.4-0.5v-0.1h-0.3c0,0.1,0,0.1-0.1,0.1
		l-0.1-0.3c0.1,0,0.4-0.2,0.9-0.6V24.2z M185.8,42.7V43h0.1v-0.3H185.8z M186.2,28.2v0.5h0.2v-0.5H186.2z M186.7,42v0.3h0.1V42
		H186.7z M186.7,42.8V43h0.3v-0.2H186.7z M187.1,42v0.1h0.3V42H187.1z M187.3,26.6v0.2h0.5v-0.2H187.3z M187.6,41.2v0.1h0.3v-0.1
		H187.6z M187.7,41.8h0.4v-0.3c-0.2,0.1-0.3,0.2-0.4,0.2V41.8z M187.9,24.7h0.3c0-0.2-0.1-0.3-0.3-0.3V24.7z M188.8,32.1v0.1h0.3
		v-0.1H188.8z M188.8,38.4v0.3h0.3v-0.3H188.8z M188.9,41.1v0.3h0.1v-0.3H188.9z M190.3,40.8v0.3h0.1v-0.3H190.3z M190.8,39.6h0.8
		v-0.3c-0.2,0.1-0.4,0.2-0.8,0.2V39.6z"/>
</g>
</svg>
